<svg version="1.1" xmlns="http://www.w3.org/2000/svg" viewBox="0 0 788.8381222495959 440.04824895017236" width="788.8381222495959" height="440.04824895017236">
  <!-- svg-source:excalidraw -->
  
  <defs>
    <style class="style-fonts">
      @font-face {
        font-family: "Virgil";
        src: url("https://excalidraw.com/Virgil.woff2");
      }
      @font-face {
        font-family: "Cascadia";
        src: url("https://excalidraw.com/Cascadia.woff2");
      }
    </style>
    
  </defs>
  <g transform="translate(97.64966954809825 79.41222080423745) rotate(0 -43.82483477404912 89.98937735213053)" stroke="none"><path fill="#1e1e1e" d="M 4.79,0.48 Q 4.79,0.48 4.89,11.86 4.98,23.23 1.99,39.80 -0.99,56.37 -5.71,75.55 -10.44,94.74 -15.94,113.11 -21.45,131.49 -27.08,146.07 -32.71,160.66 -38.42,170.65 -44.14,180.65 -53.69,185.87 -63.25,191.08 -70.24,187.76 -77.24,184.44 -81.56,174.24 -85.89,164.05 -87.17,151.68 -88.45,139.31 -89.34,130.62 -90.22,121.93 -90.24,121.50 -90.25,121.08 -90.12,120.67 -90.00,120.26 -89.75,119.92 -89.50,119.57 -89.16,119.33 -88.81,119.08 -88.41,118.95 -88.00,118.83 -87.58,118.84 -87.15,118.85 -86.75,119.00 -86.35,119.14 -86.02,119.41 -85.69,119.68 -85.46,120.03 -85.23,120.39 -85.13,120.80 -85.03,121.22 -85.06,121.64 -85.10,122.06 -85.26,122.45 -85.43,122.84 -85.71,123.16 -86.00,123.48 -86.37,123.69 -86.74,123.90 -87.16,123.98 -87.57,124.06 -87.99,124.00 -88.42,123.94 -88.80,123.75 -89.18,123.56 -89.48,123.26 -89.78,122.96 -89.97,122.58 -90.16,122.20 -90.21,121.78 -90.27,121.36 -90.19,120.94 -90.11,120.53 -89.90,120.16 -89.69,119.79 -89.38,119.50 -89.06,119.22 -88.67,119.05 -88.28,118.88 -87.86,118.85 -87.43,118.81 -87.02,118.91 -86.61,119.02 -86.25,119.25 -85.89,119.48 -85.62,119.81 -85.36,120.14 -85.21,120.54 -85.07,120.94 -85.07,120.93 -85.07,120.93 -82.67,129.34 -80.27,137.74 -77.10,148.50 -73.93,159.27 -71.29,166.32 -68.65,173.37 -65.79,175.75 -62.94,178.12 -59.82,175.32 -56.71,172.51 -51.75,163.84 -46.80,155.16 -41.33,141.16 -35.86,127.15 -30.42,109.14 -24.99,91.13 -20.31,72.39 -15.62,53.65 -12.58,37.70 -9.54,21.76 -7.17,10.63 -4.79,-0.48 -4.67,-1.05 -4.54,-1.62 -4.28,-2.14 -4.02,-2.66 -3.64,-3.10 -3.26,-3.54 -2.79,-3.88 -2.32,-4.22 -1.78,-4.44 -1.24,-4.65 -0.67,-4.74 -0.09,-4.82 0.48,-4.76 1.06,-4.70 1.60,-4.50 2.15,-4.31 2.64,-3.99 3.12,-3.67 3.51,-3.24 3.91,-2.81 4.19,-2.30 4.47,-1.79 4.62,-1.23 4.77,-0.67 4.78,-0.09 4.79,0.48 4.79,0.48 L 4.79,0.48 Z"></path></g><g transform="translate(74.35930566075103 91.99381944028892) rotate(0 23.11962124258298 40.063160881590875)" stroke="none"><path fill="#1e1e1e" d="M 4.95,-2.14 Q 4.95,-2.14 9.57,6.19 14.19,14.52 18.64,23.81 23.09,33.10 27.74,41.65 32.40,50.21 36.34,56.60 40.28,63.00 42.27,66.31 44.27,69.63 40.37,71.35 36.48,73.08 38.22,70.02 39.96,66.97 41.85,64.77 43.73,62.56 43.92,62.19 44.11,61.81 44.41,61.51 44.71,61.21 45.10,61.02 45.48,60.84 45.90,60.78 46.32,60.73 46.74,60.81 47.16,60.89 47.52,61.10 47.89,61.31 48.17,61.63 48.46,61.95 48.62,62.34 48.79,62.73 48.82,63.16 48.85,63.58 48.75,63.99 48.64,64.40 48.41,64.76 48.18,65.12 47.85,65.38 47.51,65.65 47.11,65.79 46.71,65.93 46.29,65.94 45.86,65.95 45.46,65.82 45.05,65.70 44.71,65.45 44.37,65.20 44.12,64.85 43.87,64.50 43.75,64.10 43.63,63.69 43.64,63.26 43.66,62.84 43.81,62.44 43.96,62.04 44.22,61.71 44.49,61.38 44.85,61.16 45.21,60.93 45.62,60.83 46.04,60.73 46.46,60.77 46.88,60.81 47.27,60.98 47.66,61.15 47.98,61.43 48.29,61.72 48.50,62.09 48.71,62.46 48.78,62.88 48.86,63.30 48.80,63.72 48.74,64.14 48.74,64.14 48.74,64.14 49.03,67.02 49.31,69.90 48.90,73.72 48.49,77.55 41.38,78.44 34.27,79.32 31.04,75.00 27.81,70.68 23.66,63.93 19.51,57.19 14.71,48.28 9.90,39.37 5.39,29.83 0.88,20.29 -2.03,11.21 -4.95,2.14 -5.14,1.52 -5.32,0.89 -5.35,0.24 -5.38,-0.40 -5.25,-1.04 -5.13,-1.67 -4.85,-2.26 -4.58,-2.85 -4.17,-3.36 -3.76,-3.87 -3.24,-4.26 -2.72,-4.66 -2.13,-4.91 -1.53,-5.17 -0.89,-5.28 -0.24,-5.39 0.39,-5.34 1.04,-5.29 1.66,-5.09 2.28,-4.89 2.83,-4.54 3.39,-4.20 3.84,-3.73 4.29,-3.26 4.62,-2.70 4.95,-2.14 4.95,-2.14 L 4.95,-2.14 Z"></path></g><g transform="translate(161.8382325640855 75.68789686532159) rotate(0 -14.150296684821342 93.47893015449586)" stroke="none"><path fill="#1e1e1e" d="M 4.38,0.92 Q 4.38,0.92 4.81,5.45 5.23,9.98 2.01,17.93 -1.20,25.88 -5.65,35.62 -10.11,45.35 -14.87,55.46 -19.64,65.57 -23.44,73.72 -27.24,81.86 -29.58,86.68 -31.93,91.49 -32.96,92.91 -33.99,94.33 -34.44,95.03 -34.90,95.74 -35.51,96.32 -36.12,96.90 -36.86,97.31 -37.59,97.73 -38.40,97.95 -39.21,98.18 -40.05,98.21 -40.89,98.23 -41.72,98.06 -42.54,97.88 -43.30,97.51 -44.06,97.15 -44.70,96.61 -45.35,96.07 -45.85,95.39 -46.35,94.71 -46.67,93.94 -47.00,93.16 -47.13,92.33 -47.25,91.49 -47.18,90.65 -47.10,89.82 -46.83,89.02 -46.55,88.22 -44.92,85.55 -43.29,82.88 -39.73,76.70 -36.17,70.51 -30.46,59.02 -24.74,47.53 -20.20,36.85 -15.66,26.16 -11.73,17.50 -7.80,8.84 -4.72,2.25 -1.64,-4.32 0.94,-9.29 3.52,-14.25 4.96,-16.64 6.39,-19.03 6.92,-19.97 7.45,-20.90 7.98,-21.46 8.50,-22.02 9.15,-22.44 9.79,-22.85 10.52,-23.10 11.24,-23.35 12.01,-23.42 12.77,-23.49 13.53,-23.37 14.29,-23.26 15.00,-22.96 15.70,-22.67 16.32,-22.22 16.94,-21.76 17.43,-21.17 17.92,-20.58 18.26,-19.89 18.59,-19.20 18.75,-18.45 18.91,-17.70 18.89,-16.93 18.87,-16.17 18.66,-15.43 18.45,-14.69 18.08,-14.02 17.70,-13.35 18.73,-6.85 19.75,-0.36 17.77,14.25 15.78,28.87 13.19,44.83 10.61,60.79 7.73,77.92 4.86,95.05 2.16,111.76 -0.53,128.48 -3.26,146.14 -5.99,163.81 -7.86,175.07 -9.72,186.34 -10.88,192.32 -12.03,198.31 -12.58,200.75 -13.13,203.20 -13.40,204.04 -13.67,204.88 -14.13,205.63 -14.60,206.38 -15.23,207.00 -15.86,207.62 -16.62,208.07 -17.38,208.52 -18.23,208.78 -19.08,209.03 -19.96,209.08 -20.84,209.12 -21.71,208.95 -22.58,208.79 -23.38,208.41 -24.19,208.04 -24.88,207.49 -25.57,206.94 -26.11,206.24 -26.64,205.54 -27.00,204.73 -27.35,203.92 -27.50,203.05 -27.66,202.18 -27.59,201.29 -27.53,200.41 -26.23,194.51 -24.93,188.61 -23.35,185.10 -21.77,181.59 -21.66,181.18 -21.55,180.77 -21.32,180.41 -21.08,180.06 -20.75,179.80 -20.42,179.53 -20.02,179.39 -19.61,179.25 -19.19,179.24 -18.76,179.24 -18.36,179.37 -17.96,179.50 -17.61,179.75 -17.27,180.00 -17.03,180.35 -16.78,180.70 -16.66,181.10 -16.54,181.51 -16.56,181.94 -16.58,182.36 -16.73,182.76 -16.88,183.16 -17.15,183.48 -17.42,183.81 -17.78,184.04 -18.14,184.26 -18.55,184.36 -18.97,184.46 -19.39,184.42 -19.81,184.38 -20.20,184.20 -20.59,184.03 -20.90,183.74 -21.22,183.46 -21.42,183.08 -21.63,182.71 -21.70,182.29 -21.78,181.88 -21.71,181.46 -21.65,181.03 -21.46,180.66 -21.27,180.28 -20.96,179.98 -20.66,179.68 -20.27,179.50 -19.89,179.32 -19.47,179.26 -19.05,179.21 -18.63,179.30 -18.21,179.38 -17.85,179.60 -17.48,179.81 -17.20,180.13 -16.92,180.45 -16.76,180.84 -16.59,181.23 -16.56,181.66 -16.53,182.08 -16.53,182.08 -16.53,182.08 -15.63,185.82 -14.72,189.56 -14.36,193.77 -14.00,197.98 -13.56,200.59 -13.13,203.19 -13.40,204.04 -13.67,204.88 -14.13,205.63 -14.60,206.38 -15.23,207.00 -15.86,207.62 -16.62,208.07 -17.38,208.52 -18.23,208.78 -19.08,209.03 -19.96,209.08 -20.84,209.12 -21.71,208.95 -22.58,208.79 -23.38,208.41 -24.18,208.04 -24.88,207.49 -25.57,206.94 -26.10,206.24 -26.64,205.54 -27.00,204.73 -27.35,203.92 -27.50,203.05 -27.66,202.18 -27.59,201.29 -27.53,200.41 -27.11,197.94 -26.69,195.47 -25.58,189.68 -24.46,183.90 -22.60,172.71 -20.75,161.52 -17.99,143.80 -15.24,126.09 -12.50,109.33 -9.76,92.57 -6.85,75.49 -3.94,58.40 -1.31,42.60 1.30,26.79 3.42,12.89 5.53,-0.99 6.00,-6.41 6.47,-11.83 6.96,-16.37 7.45,-20.90 7.98,-21.46 8.50,-22.02 9.15,-22.44 9.79,-22.85 10.52,-23.10 11.24,-23.35 12.01,-23.42 12.77,-23.49 13.53,-23.37 14.29,-23.26 15.00,-22.96 15.70,-22.67 16.32,-22.22 16.94,-21.76 17.43,-21.17 17.92,-20.58 18.26,-19.89 18.59,-19.20 18.75,-18.45 18.91,-17.70 18.89,-16.93 18.87,-16.17 18.66,-15.43 18.45,-14.69 18.08,-14.02 17.70,-13.35 16.81,-12.68 15.92,-12.01 14.25,-10.18 12.58,-8.35 9.27,-4.25 5.95,-0.14 2.14,5.79 -1.66,11.73 -5.76,20.14 -9.87,28.55 -14.20,39.33 -18.52,50.12 -22.71,62.46 -26.89,74.80 -29.35,81.63 -31.81,88.45 -32.90,91.39 -33.99,94.33 -34.44,95.03 -34.90,95.74 -35.51,96.32 -36.12,96.90 -36.86,97.31 -37.59,97.73 -38.40,97.95 -39.21,98.18 -40.05,98.21 -40.89,98.23 -41.72,98.06 -42.54,97.88 -43.30,97.51 -44.06,97.15 -44.70,96.61 -45.35,96.07 -45.85,95.39 -46.35,94.71 -46.67,93.94 -47.00,93.16 -47.13,92.33 -47.25,91.49 -47.18,90.66 -47.10,89.82 -46.83,89.02 -46.55,88.22 -45.82,86.66 -45.08,85.10 -42.80,80.39 -40.52,75.67 -36.70,67.49 -32.89,59.31 -28.14,49.28 -23.39,39.24 -19.00,29.75 -14.60,20.25 -11.70,13.61 -8.80,6.97 -6.59,3.02 -4.38,-0.92 -4.21,-1.43 -4.04,-1.94 -3.74,-2.40 -3.45,-2.85 -3.06,-3.22 -2.67,-3.60 -2.20,-3.86 -1.73,-4.13 -1.21,-4.28 -0.69,-4.43 -0.15,-4.44 0.38,-4.46 0.91,-4.35 1.44,-4.24 1.93,-4.01 2.42,-3.77 2.83,-3.43 3.25,-3.08 3.57,-2.65 3.89,-2.21 4.10,-1.71 4.31,-1.22 4.39,-0.68 4.48,-0.15 4.43,0.38 4.38,0.92 4.38,0.92 L 4.38,0.92 Z"></path></g><g transform="translate(193.0681294329611 139.50829605353601) rotate(0 -8.97199241158637 46.50869572143415)" stroke="none"><path fill="#1e1e1e" d="M 4.08,0.87 Q 4.08,0.87 4.24,6.97 4.39,13.07 3.08,20.97 1.78,28.87 0.13,38.36 -1.50,47.84 -3.26,57.01 -5.02,66.18 -6.41,73.28 -7.80,80.38 -8.66,84.51 -9.52,88.63 -9.79,89.47 -10.07,90.31 -10.53,91.06 -11.00,91.80 -11.63,92.42 -12.26,93.03 -13.02,93.48 -13.78,93.93 -14.63,94.18 -15.47,94.43 -16.35,94.47 -17.23,94.51 -18.10,94.34 -18.96,94.17 -19.76,93.80 -20.56,93.43 -21.25,92.88 -21.94,92.32 -22.47,91.62 -23.01,90.92 -23.36,90.11 -23.71,89.30 -23.86,88.43 -24.00,87.57 -23.94,86.69 -23.87,85.81 -21.73,81.40 -19.59,77.00 -18.34,73.68 -17.08,70.35 -16.94,69.95 -16.80,69.55 -16.54,69.22 -16.28,68.88 -15.92,68.65 -15.57,68.41 -15.16,68.30 -14.75,68.19 -14.33,68.22 -13.90,68.25 -13.51,68.41 -13.11,68.57 -12.79,68.85 -12.47,69.13 -12.26,69.49 -12.04,69.86 -11.96,70.27 -11.87,70.69 -11.92,71.11 -11.97,71.53 -12.15,71.92 -12.33,72.30 -12.63,72.61 -12.92,72.91 -13.30,73.11 -13.68,73.30 -14.10,73.37 -14.52,73.43 -14.94,73.36 -15.36,73.29 -15.73,73.08 -16.10,72.88 -16.39,72.57 -16.68,72.26 -16.86,71.87 -17.03,71.48 -17.07,71.06 -17.11,70.64 -17.02,70.22 -16.92,69.81 -16.70,69.45 -16.48,69.08 -16.15,68.81 -15.82,68.54 -15.43,68.39 -15.03,68.23 -14.61,68.22 -14.18,68.20 -13.77,68.31 -13.36,68.43 -13.02,68.68 -12.67,68.92 -12.41,69.26 -12.16,69.60 -12.03,70.00 -11.90,70.41 -11.90,70.83 -11.90,71.26 -11.90,71.26 -11.90,71.26 -11.85,74.81 -11.79,78.36 -10.65,83.50 -9.52,88.63 -9.79,89.47 -10.07,90.31 -10.53,91.05 -11.00,91.80 -11.63,92.42 -12.26,93.03 -13.02,93.48 -13.78,93.93 -14.63,94.18 -15.47,94.43 -16.35,94.47 -17.23,94.51 -18.10,94.34 -18.96,94.17 -19.76,93.80 -20.56,93.43 -21.25,92.88 -21.94,92.32 -22.47,91.62 -23.00,90.92 -23.36,90.11 -23.71,89.30 -23.86,88.44 -24.00,87.57 -23.94,86.69 -23.87,85.81 -23.05,81.68 -22.24,77.54 -20.84,70.47 -19.44,63.39 -17.67,54.33 -15.91,45.26 -14.17,35.81 -12.43,26.35 -10.89,18.24 -9.35,10.13 -6.72,4.63 -4.08,-0.87 -3.92,-1.35 -3.76,-1.82 -3.48,-2.25 -3.21,-2.67 -2.84,-3.02 -2.48,-3.36 -2.04,-3.61 -1.60,-3.86 -1.11,-3.99 -0.63,-4.13 -0.12,-4.14 0.37,-4.16 0.86,-4.06 1.36,-3.95 1.81,-3.73 2.26,-3.51 2.65,-3.19 3.04,-2.86 3.34,-2.46 3.64,-2.05 3.83,-1.59 4.02,-1.12 4.10,-0.62 4.18,-0.12 4.13,0.37 4.08,0.87 4.08,0.87 L 4.08,0.87 Z"></path></g><g transform="translate(201.6959687011945 89.1979086322774) rotate(0 -0.6909741405295335 6.053360327650694)" stroke="none"><path fill="#1e1e1e" d="M 5.83,0.62 Q 5.83,0.62 4.80,4.26 3.77,7.89 2.50,10.53 1.22,13.16 1.11,13.57 1.00,13.98 0.76,14.33 0.52,14.68 0.18,14.94 -0.14,15.20 -0.55,15.34 -0.95,15.47 -1.37,15.47 -1.80,15.47 -2.20,15.34 -2.60,15.20 -2.94,14.95 -3.28,14.69 -3.52,14.34 -3.76,13.99 -3.87,13.58 -3.99,13.17 -3.97,12.74 -3.94,12.32 -3.79,11.92 -3.63,11.53 -3.35,11.21 -3.08,10.88 -2.72,10.66 -2.35,10.44 -1.94,10.35 -1.52,10.26 -1.10,10.30 -0.68,10.35 -0.29,10.53 0.08,10.70 0.39,11.00 0.70,11.29 0.90,11.66 1.10,12.04 1.17,12.46 1.24,12.88 1.17,13.30 1.10,13.72 0.90,14.09 0.71,14.47 0.40,14.76 0.09,15.05 -0.29,15.23 -0.67,15.41 -1.09,15.46 -1.52,15.50 -1.93,15.41 -2.35,15.32 -2.71,15.10 -3.07,14.88 -3.35,14.56 -3.63,14.24 -3.78,13.84 -3.94,13.45 -3.97,13.02 -3.99,12.60 -3.99,12.60 -3.99,12.60 -4.67,9.76 -5.36,6.91 -5.60,3.14 -5.83,-0.62 -5.67,-1.31 -5.51,-2.00 -5.19,-2.63 -4.87,-3.26 -4.41,-3.80 -3.95,-4.34 -3.37,-4.75 -2.80,-5.16 -2.14,-5.42 -1.48,-5.68 -0.78,-5.77 -0.08,-5.87 0.62,-5.79 1.32,-5.72 1.99,-5.47 2.65,-5.23 3.24,-4.84 3.83,-4.44 4.30,-3.92 4.78,-3.40 5.12,-2.78 5.46,-2.15 5.63,-1.47 5.81,-0.78 5.82,-0.08 5.83,0.62 5.83,0.62 L 5.83,0.62 Z"></path></g><g transform="translate(235.68442642453965 52.237461748508395) rotate(0 -15.614948434437792 81.60431278192073)" stroke="none"><path fill="#1e1e1e" d="M 4.78,0 Q 4.78,0 5.74,6.34 6.70,12.68 6.17,23.13 5.65,33.59 3.76,47.46 1.86,61.32 -1.10,76.02 -4.08,90.71 -7.45,103.83 -10.82,116.95 -14.19,128.71 -17.57,140.47 -19.43,147.21 -21.29,153.96 -22.32,157.38 -23.35,160.79 -24.03,160.84 -24.71,160.89 -25.00,161.58 -25.28,162.27 -25.73,162.87 -26.17,163.47 -26.74,163.94 -27.31,164.42 -27.98,164.75 -28.65,165.07 -29.38,165.23 -30.11,165.38 -30.85,165.36 -31.60,165.34 -32.32,165.13 -33.03,164.93 -33.68,164.57 -34.33,164.20 -34.87,163.69 -35.41,163.18 -35.82,162.55 -36.22,161.93 -36.46,161.22 -36.70,160.52 -36.77,159.78 -36.84,159.03 -36.72,158.30 -36.61,157.56 -34.61,156.28 -32.61,155.00 -32.47,154.59 -32.33,154.19 -32.07,153.85 -31.81,153.52 -31.46,153.28 -31.11,153.04 -30.70,152.93 -30.29,152.82 -29.86,152.85 -29.44,152.87 -29.05,153.03 -28.65,153.19 -28.33,153.47 -28.01,153.75 -27.79,154.11 -27.57,154.48 -27.48,154.89 -27.40,155.31 -27.44,155.73 -27.49,156.15 -27.67,156.54 -27.85,156.92 -28.15,157.23 -28.44,157.53 -28.82,157.73 -29.19,157.93 -29.61,158.00 -30.03,158.06 -30.45,157.99 -30.87,157.92 -31.25,157.72 -31.62,157.52 -31.91,157.21 -32.20,156.90 -32.38,156.51 -32.55,156.12 -32.60,155.70 -32.64,155.28 -32.55,154.86 -32.45,154.45 -32.23,154.09 -32.01,153.72 -31.69,153.45 -31.36,153.18 -30.96,153.02 -30.57,152.87 -30.14,152.85 -29.72,152.83 -29.31,152.94 -28.90,153.06 -28.55,153.30 -28.20,153.54 -27.95,153.88 -27.69,154.22 -27.56,154.62 -27.42,155.03 -27.43,155.45 -27.43,155.88 -27.43,155.87 -27.43,155.87 -26.07,158.38 -24.71,160.89 -25.00,161.58 -25.28,162.27 -25.73,162.87 -26.17,163.47 -26.74,163.94 -27.31,164.42 -27.98,164.74 -28.65,165.07 -29.38,165.23 -30.11,165.38 -30.85,165.36 -31.60,165.34 -32.32,165.13 -33.03,164.93 -33.68,164.57 -34.33,164.20 -34.87,163.69 -35.41,163.18 -35.82,162.55 -36.22,161.93 -36.46,161.22 -36.70,160.52 -36.77,159.78 -36.84,159.04 -36.72,158.30 -36.61,157.56 -36.53,156.87 -36.45,156.17 -35.69,153.19 -34.93,150.20 -33.05,143.38 -31.17,136.56 -27.84,124.99 -24.51,113.42 -21.21,100.66 -17.91,87.90 -15.00,73.63 -12.09,59.36 -10.16,46.04 -8.23,32.71 -7.46,22.69 -6.70,12.67 -5.74,6.33 -4.78,0 -4.71,-0.57 -4.64,-1.14 -4.43,-1.68 -4.23,-2.22 -3.90,-2.69 -3.57,-3.17 -3.14,-3.55 -2.71,-3.93 -2.20,-4.20 -1.69,-4.46 -1.13,-4.60 -0.57,-4.74 0.00,-4.74 0.57,-4.74 1.13,-4.60 1.69,-4.46 2.20,-4.20 2.71,-3.93 3.14,-3.55 3.57,-3.16 3.90,-2.69 4.23,-2.22 4.43,-1.68 4.64,-1.14 4.71,-0.57 4.78,0.00 4.78,0.00 L 4.78,0 Z"></path></g><g transform="translate(250.86985039324236 120.56653390002384) rotate(0 -7.336598017205233 35.247684728479726)" stroke="none"><path fill="#1e1e1e" d="M 4.32,0.38 Q 4.32,0.38 5.11,7.20 5.90,14.02 4.88,19.83 3.86,25.63 1.54,35.52 -0.76,45.41 -2.49,52.34 -4.22,59.27 -5.34,63.13 -6.46,66.99 -6.97,68.16 -7.48,69.33 -7.81,70.12 -8.15,70.91 -8.67,71.60 -9.18,72.29 -9.85,72.83 -10.52,73.38 -11.29,73.74 -12.07,74.11 -12.91,74.28 -13.76,74.46 -14.62,74.42 -15.48,74.39 -16.30,74.15 -17.13,73.91 -17.87,73.48 -18.62,73.05 -19.24,72.45 -19.86,71.85 -20.32,71.13 -20.78,70.40 -21.05,69.58 -21.32,68.77 -21.39,67.91 -21.46,67.05 -21.32,66.20 -21.18,65.36 -18.98,62.07 -16.77,58.79 -16.69,58.37 -16.62,57.96 -16.41,57.58 -16.20,57.21 -15.89,56.93 -15.57,56.64 -15.18,56.47 -14.79,56.30 -14.37,56.27 -13.95,56.23 -13.53,56.33 -13.12,56.43 -12.76,56.66 -12.40,56.88 -12.13,57.21 -11.87,57.54 -11.72,57.94 -11.57,58.34 -11.55,58.76 -11.54,59.19 -11.66,59.60 -11.79,60.00 -12.03,60.35 -12.28,60.70 -12.62,60.95 -12.97,61.19 -13.37,61.32 -13.78,61.45 -14.20,61.44 -14.63,61.43 -15.03,61.29 -15.43,61.14 -15.76,60.88 -16.09,60.61 -16.32,60.26 -16.55,59.90 -16.66,59.49 -16.76,59.07 -16.73,58.65 -16.70,58.23 -16.53,57.84 -16.37,57.44 -16.08,57.13 -15.80,56.81 -15.43,56.60 -15.06,56.39 -14.65,56.30 -14.23,56.22 -13.81,56.28 -13.39,56.33 -13.01,56.52 -12.62,56.71 -12.32,57.01 -12.02,57.30 -11.83,57.68 -11.64,58.06 -11.58,58.49 -11.52,58.91 -11.52,58.91 -11.52,58.91 -10.10,60.74 -8.68,62.58 -8.08,65.95 -7.48,69.33 -7.81,70.12 -8.15,70.91 -8.67,71.60 -9.18,72.29 -9.85,72.83 -10.52,73.37 -11.29,73.74 -12.07,74.11 -12.91,74.28 -13.76,74.46 -14.62,74.42 -15.48,74.39 -16.30,74.15 -17.13,73.91 -17.87,73.48 -18.62,73.05 -19.24,72.45 -19.86,71.86 -20.32,71.13 -20.78,70.40 -21.05,69.59 -21.32,68.77 -21.39,67.91 -21.46,67.05 -21.32,66.21 -21.18,65.36 -20.78,64.16 -20.37,62.96 -19.32,59.36 -18.27,55.76 -16.56,48.91 -14.84,42.06 -12.54,32.56 -10.24,23.06 -9.26,17.91 -8.29,12.75 -6.30,6.18 -4.32,-0.38 -4.21,-0.89 -4.10,-1.41 -3.88,-1.88 -3.65,-2.35 -3.31,-2.75 -2.98,-3.15 -2.56,-3.46 -2.14,-3.78 -1.65,-3.98 -1.17,-4.18 -0.65,-4.26 -0.13,-4.34 0.38,-4.29 0.90,-4.24 1.40,-4.07 1.89,-3.90 2.33,-3.62 2.77,-3.34 3.13,-2.96 3.49,-2.58 3.75,-2.12 4.01,-1.66 4.15,-1.16 4.29,-0.66 4.31,-0.13 4.32,0.38 4.32,0.38 L 4.32,0.38 Z"></path></g><g transform="translate(266.5675022962382 80.65544068642566) rotate(0 -0.5175636419412513 4.348601733834698)" stroke="none"><path fill="#1e1e1e" d="M 5.54,-1.72 Q 5.54,-1.72 5.62,-0.34 5.71,1.04 5.14,2.31 4.57,3.58 3.47,4.43 2.38,5.29 1.01,5.54 -0.35,5.79 -1.67,5.38 -3.00,4.96 -3.98,3.98 -4.96,3.00 -5.38,1.67 -5.79,0.34 -5.54,-1.01 -5.29,-2.38 -4.43,-3.47 -3.58,-4.57 -2.31,-5.14 -1.04,-5.71 0.34,-5.62 1.72,-5.54 2.91,-4.82 4.10,-4.10 4.82,-2.91 L 5.54,-1.72 Z"></path></g><g transform="translate(281.4061052677639 106.74171538178416) rotate(0 14.579821150555972 40.61007091560077)" stroke="none"><path fill="#1e1e1e" d="M 4.86,-0.04 Q 4.86,-0.04 6.04,5.79 7.21,11.64 6.71,19.90 6.22,28.17 5.05,37.53 3.89,46.90 2.43,55.28 0.98,63.67 -0.26,69.21 -1.50,74.75 -2.33,77.59 -3.17,80.43 -3.40,80.64 -3.64,80.86 -3.98,81.68 -4.33,82.51 -4.86,83.22 -5.40,83.94 -6.09,84.51 -6.78,85.07 -7.58,85.46 -8.39,85.85 -9.26,86.03 -10.13,86.21 -11.03,86.18 -11.92,86.15 -12.78,85.90 -13.64,85.66 -14.41,85.21 -15.19,84.77 -15.83,84.16 -16.48,83.54 -16.96,82.79 -17.44,82.04 -17.73,81.19 -18.01,80.34 -18.09,79.45 -18.16,78.56 -18.03,77.68 -17.89,76.80 -16.82,71.53 -15.75,66.25 -13.14,58.27 -10.53,50.28 -6.85,41.91 -3.16,33.54 1.18,26.16 5.52,18.78 11.06,12.69 16.60,6.60 21.73,3.45 26.86,0.29 32.51,1.39 38.16,2.48 41.37,7.66 44.59,12.84 45.61,20.39 46.62,27.93 45.60,38.02 44.58,48.10 43.30,54.72 42.02,61.33 41.04,65.06 40.07,68.78 39.62,69.89 39.16,70.99 38.84,71.81 38.52,72.62 38.01,73.33 37.50,74.04 36.84,74.61 36.17,75.18 35.39,75.57 34.61,75.97 33.76,76.16 32.91,76.36 32.03,76.34 31.16,76.33 30.31,76.11 29.47,75.88 28.70,75.46 27.93,75.04 27.29,74.45 26.64,73.86 26.16,73.14 25.67,72.41 25.37,71.59 25.08,70.76 24.99,69.89 24.90,69.02 25.02,68.16 25.14,67.29 27.04,64.65 28.95,62.00 28.99,61.58 29.02,61.16 29.19,60.77 29.36,60.38 29.65,60.06 29.93,59.75 30.30,59.54 30.67,59.33 31.09,59.25 31.51,59.17 31.93,59.23 32.35,59.29 32.73,59.48 33.11,59.67 33.41,59.97 33.71,60.27 33.90,60.65 34.08,61.03 34.14,61.46 34.20,61.88 34.12,62.29 34.03,62.71 33.82,63.08 33.61,63.45 33.30,63.73 32.98,64.02 32.59,64.18 32.20,64.35 31.77,64.38 31.35,64.42 30.94,64.31 30.53,64.21 30.17,63.98 29.81,63.75 29.55,63.42 29.28,63.08 29.14,62.69 28.99,62.29 28.98,61.86 28.97,61.44 29.10,61.03 29.22,60.62 29.47,60.28 29.72,59.94 30.07,59.69 30.41,59.44 30.82,59.32 31.22,59.19 31.65,59.21 32.07,59.22 32.47,59.37 32.87,59.52 33.20,59.78 33.53,60.05 33.76,60.41 33.99,60.77 34.09,61.18 34.19,61.59 34.19,61.59 34.19,61.59 35.77,63.04 37.34,64.48 38.25,67.74 39.17,70.99 38.84,71.80 38.52,72.62 38.01,73.33 37.50,74.04 36.84,74.61 36.17,75.18 35.39,75.57 34.61,75.97 33.76,76.16 32.91,76.36 32.03,76.34 31.16,76.33 30.31,76.11 29.47,75.88 28.70,75.46 27.93,75.05 27.29,74.45 26.64,73.86 26.16,73.14 25.67,72.41 25.38,71.59 25.08,70.76 24.99,69.89 24.90,69.02 25.02,68.16 25.13,67.29 25.46,66.15 25.79,65.01 26.66,61.75 27.53,58.50 28.72,52.48 29.91,46.47 30.95,37.97 32.00,29.46 31.58,23.94 31.16,18.43 31.27,15.65 31.37,12.87 29.21,14.64 27.04,16.40 22.42,21.26 17.81,26.11 13.90,32.71 10.00,39.32 6.63,47.04 3.27,54.76 0.97,61.95 -1.32,69.15 -2.48,75.00 -3.64,80.86 -3.98,81.68 -4.33,82.50 -4.86,83.22 -5.40,83.94 -6.09,84.51 -6.78,85.07 -7.58,85.46 -8.38,85.85 -9.26,86.03 -10.13,86.21 -11.03,86.18 -11.92,86.15 -12.78,85.90 -13.64,85.66 -14.41,85.22 -15.19,84.77 -15.83,84.16 -16.48,83.54 -16.96,82.79 -17.44,82.04 -17.73,81.19 -18.01,80.34 -18.09,79.45 -18.16,78.57 -18.03,77.68 -17.89,76.80 -17.51,76.32 -17.14,75.84 -16.55,73.66 -15.96,71.49 -14.78,66.30 -13.60,61.10 -12.17,53.05 -10.73,45.00 -9.53,36.06 -8.32,27.12 -7.67,19.44 -7.01,11.75 -5.94,5.89 -4.86,0.04 -4.80,-0.54 -4.73,-1.12 -4.53,-1.67 -4.32,-2.22 -3.99,-2.71 -3.67,-3.19 -3.23,-3.58 -2.79,-3.98 -2.28,-4.25 -1.76,-4.53 -1.19,-4.68 -0.62,-4.82 -0.04,-4.83 0.54,-4.83 1.11,-4.70 1.68,-4.56 2.20,-4.29 2.73,-4.02 3.17,-3.64 3.61,-3.25 3.95,-2.77 4.29,-2.29 4.50,-1.75 4.71,-1.20 4.79,-0.62 4.86,-0.04 4.86,-0.04 L 4.86,-0.04 Z"></path></g><g transform="translate(376.30166580303694 94.94446577011763) rotate(0 -28.81282130393447 2.4037362958190442)" stroke="none"><path fill="#1e1e1e" d="M 1.26,3.70 Q 1.26,3.70 -2.89,6.39 -7.05,9.08 -9.69,12.52 -12.33,15.96 -15.35,22.01 -18.38,28.06 -21.37,36.19 -24.36,44.32 -26.66,52.62 -28.96,60.91 -30.09,68.48 -31.21,76.04 -32.09,78.25 -32.97,80.46 -35.45,80.61 -37.93,80.77 -33.85,75.24 -29.78,69.72 -25.64,61.71 -21.51,53.70 -18.45,42.52 -15.40,31.33 -13.99,17.41 -12.59,3.49 -13.60,-11.14 -14.61,-25.78 -17.84,-38.35 -21.07,-50.92 -26.88,-59.05 -32.69,-67.17 -36.80,-70.03 -40.92,-72.88 -43.39,-72.29 -45.86,-71.70 -47.39,-70.13 -48.92,-68.55 -52.21,-67.43 -55.51,-66.30 -55.81,-66.00 -56.12,-65.71 -56.50,-65.52 -56.88,-65.34 -57.30,-65.29 -57.73,-65.24 -58.14,-65.32 -58.56,-65.41 -58.93,-65.62 -59.29,-65.83 -59.57,-66.15 -59.85,-66.47 -60.01,-66.87 -60.18,-67.26 -60.21,-67.68 -60.24,-68.11 -60.13,-68.52 -60.02,-68.93 -59.79,-69.28 -59.55,-69.64 -59.22,-69.90 -58.88,-70.16 -58.48,-70.30 -58.08,-70.45 -57.66,-70.45 -57.23,-70.46 -56.83,-70.33 -56.42,-70.20 -56.08,-69.95 -55.74,-69.69 -55.50,-69.34 -55.25,-69.00 -55.13,-68.59 -55.01,-68.18 -55.03,-67.76 -55.05,-67.33 -55.20,-66.93 -55.35,-66.54 -55.62,-66.21 -55.89,-65.88 -56.25,-65.66 -56.61,-65.43 -57.03,-65.34 -57.44,-65.24 -57.86,-65.28 -58.29,-65.32 -58.68,-65.49 -59.06,-65.67 -59.38,-65.95 -59.69,-66.24 -59.89,-66.61 -60.10,-66.99 -60.17,-67.40 -60.25,-67.82 -60.18,-68.24 -60.12,-68.66 -59.93,-69.04 -59.73,-69.42 -59.73,-69.42 -59.73,-69.42 -59.75,-71.48 -59.76,-73.53 -58.43,-76.59 -57.11,-79.64 -52.41,-82.53 -47.71,-85.41 -41.13,-85.21 -34.55,-85.02 -27.87,-80.19 -21.18,-75.36 -14.42,-64.98 -7.66,-54.60 -4.20,-40.66 -0.73,-26.72 0.24,-10.91 1.21,4.90 -0.41,19.98 -2.04,35.06 -5.66,47.58 -9.27,60.10 -14.30,69.41 -19.33,78.72 -25.14,84.54 -30.95,90.37 -37.08,88.44 -43.21,86.51 -44.04,80.24 -44.87,73.97 -43.56,65.59 -42.24,57.20 -39.73,48.34 -37.22,39.48 -33.79,30.57 -30.36,21.67 -26.21,14.30 -22.06,6.94 -16.92,2.14 -11.79,-2.65 -6.52,-3.18 -1.26,-3.70 -0.80,-3.80 -0.33,-3.89 0.13,-3.88 0.60,-3.86 1.05,-3.73 1.51,-3.61 1.92,-3.37 2.33,-3.14 2.67,-2.81 3.01,-2.49 3.27,-2.09 3.52,-1.69 3.67,-1.25 3.82,-0.80 3.87,-0.33 3.91,0.13 3.83,0.59 3.76,1.06 3.58,1.50 3.40,1.93 3.12,2.31 2.83,2.69 2.47,2.99 2.11,3.29 1.68,3.49 1.26,3.70 1.26,3.70 L 1.26,3.70 Z"></path></g><g transform="translate(247.07082654724263 243.39452397716627) rotate(0 -56.41977267922266 93.32686248650305)" stroke="none"><path fill="#1e1e1e" d="M 3.65,0.87 Q 3.65,0.87 3.03,9.96 2.41,19.06 -0.35,31.81 -3.11,44.55 -7.45,60.66 -11.78,76.77 -17.59,93.74 -23.41,110.72 -30.46,125.91 -37.51,141.11 -45.40,153.00 -53.28,164.89 -63.63,173.23 -73.98,181.57 -83.30,184.21 -92.61,186.84 -99.98,183.52 -107.35,180.20 -111.29,173.14 -115.23,166.09 -116.25,158.70 -117.26,151.32 -113.84,144.40 -110.42,137.47 -107.94,133.48 -105.45,129.49 -105.24,129.13 -105.02,128.76 -104.70,128.48 -104.38,128.20 -103.99,128.04 -103.60,127.88 -103.17,127.85 -102.75,127.82 -102.34,127.93 -101.93,128.04 -101.57,128.27 -101.22,128.51 -100.96,128.84 -100.69,129.18 -100.55,129.58 -100.41,129.98 -100.41,130.41 -100.40,130.83 -100.53,131.24 -100.67,131.64 -100.92,131.98 -101.17,132.32 -101.52,132.57 -101.87,132.81 -102.28,132.93 -102.69,133.04 -103.11,133.03 -103.54,133.01 -103.93,132.86 -104.33,132.70 -104.66,132.43 -104.98,132.16 -105.21,131.80 -105.43,131.44 -105.53,131.02 -105.62,130.61 -105.58,130.19 -105.54,129.76 -105.37,129.38 -105.19,128.99 -104.90,128.68 -104.61,128.36 -104.24,128.16 -103.87,127.96 -103.45,127.88 -103.03,127.81 -102.61,127.87 -102.19,127.94 -101.81,128.13 -101.44,128.33 -101.14,128.63 -100.84,128.94 -100.66,129.32 -100.48,129.71 -100.43,130.13 -100.38,130.55 -100.46,130.97 -100.55,131.38 -100.55,131.38 -100.55,131.38 -101.38,136.01 -102.21,140.63 -103.28,145.37 -104.34,150.10 -103.31,155.03 -102.27,159.95 -100.69,164.19 -99.11,168.44 -96.29,170.71 -93.46,172.98 -88.12,171.33 -82.79,169.68 -74.08,163.10 -65.37,156.52 -58.05,145.72 -50.73,134.91 -43.94,120.44 -37.15,105.96 -31.42,89.47 -25.68,72.97 -21.29,57.18 -16.89,41.39 -13.82,28.66 -10.74,15.93 -7.20,7.53 -3.65,-0.87 -3.50,-1.29 -3.34,-1.72 -3.08,-2.09 -2.83,-2.47 -2.49,-2.77 -2.16,-3.07 -1.76,-3.29 -1.36,-3.50 -0.92,-3.61 -0.48,-3.72 -0.02,-3.73 0.42,-3.73 0.86,-3.63 1.30,-3.52 1.70,-3.31 2.11,-3.11 2.45,-2.81 2.79,-2.51 3.05,-2.14 3.31,-1.77 3.47,-1.35 3.64,-0.92 3.70,-0.47 3.76,-0.02 3.70,0.42 3.65,0.87 3.65,0.87 L 3.65,0.87 Z"></path></g><g transform="translate(218.08726259854393 257.9930201044931) rotate(0 29.245013623493378 26.86528801209431)" stroke="none"><path fill="#1e1e1e" d="M 3.13,-3.73 Q 3.13,-3.73 8.82,-0.34 14.50,3.03 20.25,8.70 26.00,14.37 31.16,20.63 36.31,26.88 40.58,33.11 44.84,39.35 46.44,41.96 48.04,44.58 44.47,45.71 40.89,46.83 42.01,44.06 43.13,41.28 47.19,34.03 51.24,26.78 53.63,21.09 56.02,15.40 56.23,15.03 56.43,14.66 56.75,14.38 57.06,14.09 57.45,13.92 57.84,13.75 58.27,13.72 58.69,13.68 59.10,13.78 59.52,13.89 59.88,14.11 60.23,14.34 60.50,14.67 60.77,15.00 60.92,15.40 61.06,15.80 61.08,16.22 61.09,16.65 60.96,17.06 60.84,17.46 60.59,17.81 60.35,18.15 60.00,18.40 59.66,18.65 59.25,18.78 58.85,18.90 58.42,18.89 58.00,18.88 57.60,18.74 57.20,18.59 56.87,18.33 56.53,18.06 56.30,17.70 56.07,17.34 55.97,16.93 55.87,16.52 55.90,16.10 55.93,15.67 56.10,15.28 56.27,14.89 56.55,14.57 56.83,14.26 57.20,14.05 57.57,13.84 57.99,13.76 58.41,13.68 58.83,13.73 59.25,13.79 59.63,13.98 60.01,14.16 60.31,14.46 60.61,14.76 60.80,15.14 60.99,15.52 61.05,15.94 61.11,16.37 61.03,16.78 60.95,17.20 60.95,17.20 60.95,17.20 59.12,23.09 57.29,28.99 55.63,37.41 53.98,45.83 52.41,49.47 50.83,53.11 44.65,53.57 38.47,54.03 35.82,50.67 33.16,47.30 29.28,41.57 25.40,35.83 20.71,30.09 16.03,24.36 10.78,19.05 5.53,13.74 1.19,8.74 -3.13,3.73 -3.53,3.30 -3.93,2.88 -4.22,2.36 -4.51,1.85 -4.66,1.28 -4.82,0.72 -4.83,0.13 -4.85,-0.45 -4.73,-1.02 -4.60,-1.60 -4.34,-2.13 -4.08,-2.65 -3.71,-3.10 -3.33,-3.55 -2.85,-3.90 -2.38,-4.25 -1.84,-4.47 -1.29,-4.70 -0.71,-4.78 -0.13,-4.87 0.45,-4.82 1.03,-4.76 1.59,-4.57 2.14,-4.37 2.63,-4.05 3.13,-3.73 3.13,-3.73 L 3.13,-3.73 Z"></path></g><g transform="translate(303.83742022364186 232.06148093095203) rotate(0 -12.853719726143936 81.3695416453703)" stroke="none"><path fill="#1e1e1e" d="M -2.28,-2.11 Q -2.28,-2.11 -0.11,-5.97 2.05,-9.84 3.63,-11.84 5.22,-13.83 5.72,-14.17 6.23,-14.50 6.83,-14.95 7.43,-15.40 8.12,-15.69 8.81,-15.99 9.55,-16.11 10.29,-16.22 11.04,-16.16 11.78,-16.10 12.49,-15.86 13.20,-15.62 13.84,-15.22 14.47,-14.82 14.99,-14.28 15.51,-13.73 15.88,-13.08 16.25,-12.43 16.46,-11.71 16.67,-10.99 16.70,-10.24 16.73,-9.49 16.57,-8.76 16.42,-8.02 16.10,-7.35 15.78,-6.67 15.30,-6.09 14.83,-5.51 14.44,-1.98 14.05,1.54 10.52,8.95 6.99,16.37 1.89,24.69 -3.20,33.02 -8.76,40.82 -14.32,48.62 -18.75,54.30 -23.19,59.98 -28.08,63.74 -32.97,67.50 -31.47,66.44 -29.96,65.39 -30.56,65.96 -31.15,66.52 -31.86,66.93 -32.57,67.34 -33.36,67.57 -34.15,67.80 -34.97,67.83 -35.79,67.86 -36.59,67.70 -37.39,67.53 -38.14,67.18 -38.88,66.83 -39.51,66.31 -40.15,65.79 -40.64,65.13 -41.13,64.48 -41.45,63.72 -41.77,62.97 -41.91,62.16 -42.04,61.35 -41.97,60.53 -41.90,59.71 -41.64,58.93 -41.38,58.16 -40.94,57.46 -40.50,56.77 -39.27,54.00 -38.03,51.23 -34.12,45.02 -30.21,38.82 -25.47,31.92 -20.74,25.03 -15.14,16.67 -9.54,8.31 -5.78,2.70 -2.03,-2.89 0.15,-6.08 2.33,-9.27 4.35,-11.21 6.37,-13.16 11.20,-11.18 16.02,-9.19 16.80,-3.31 17.58,2.57 17.19,12.13 16.80,21.69 15.29,35.00 13.78,48.31 11.44,64.25 9.09,80.18 5.76,100.10 2.43,120.02 0.17,133.63 -2.07,147.24 -3.38,155.21 -4.68,163.17 -5.26,166.78 -5.83,170.40 -6.08,171.25 -6.33,172.11 -6.78,172.89 -7.22,173.66 -7.84,174.30 -8.47,174.95 -9.22,175.42 -9.98,175.90 -10.83,176.18 -11.67,176.46 -12.57,176.54 -13.46,176.61 -14.34,176.46 -15.22,176.32 -16.04,175.97 -16.87,175.61 -17.58,175.08 -18.29,174.54 -18.86,173.84 -19.42,173.15 -19.80,172.34 -20.19,171.53 -20.36,170.66 -20.54,169.78 -20.50,168.89 -20.47,168.00 -16.57,157.69 -12.66,147.39 -10.19,140.93 -7.72,134.47 -7.56,134.08 -7.39,133.69 -7.11,133.37 -6.83,133.05 -6.46,132.84 -6.09,132.63 -5.68,132.55 -5.26,132.46 -4.84,132.52 -4.42,132.57 -4.04,132.76 -3.65,132.95 -3.35,133.24 -3.05,133.54 -2.86,133.92 -2.67,134.30 -2.60,134.72 -2.54,135.14 -2.62,135.56 -2.70,135.98 -2.91,136.35 -3.11,136.72 -3.43,137.01 -3.74,137.29 -4.13,137.46 -4.52,137.63 -4.94,137.67 -5.36,137.71 -5.78,137.61 -6.19,137.51 -6.55,137.28 -6.91,137.06 -7.18,136.73 -7.45,136.40 -7.60,136.00 -7.75,135.60 -7.76,135.18 -7.78,134.75 -7.65,134.35 -7.53,133.94 -7.29,133.59 -7.04,133.25 -6.70,133.00 -6.35,132.75 -5.95,132.62 -5.54,132.49 -5.12,132.50 -4.69,132.51 -4.29,132.65 -3.89,132.79 -3.56,133.06 -3.23,133.32 -3.00,133.68 -2.77,134.03 -2.66,134.45 -2.55,134.86 -2.59,135.28 -2.62,135.71 -2.62,135.71 -2.62,135.70 -3.36,142.58 -4.10,149.45 -4.96,159.92 -5.83,170.39 -6.08,171.25 -6.33,172.11 -6.78,172.88 -7.22,173.66 -7.84,174.30 -8.46,174.95 -9.22,175.42 -9.98,175.90 -10.83,176.18 -11.67,176.46 -12.57,176.54 -13.46,176.61 -14.34,176.46 -15.22,176.32 -16.04,175.97 -16.86,175.61 -17.58,175.08 -18.29,174.54 -18.86,173.85 -19.42,173.15 -19.80,172.34 -20.19,171.54 -20.36,170.66 -20.54,169.78 -20.50,168.89 -20.47,168.00 -19.93,164.38 -19.39,160.77 -18.08,152.78 -16.78,144.80 -14.52,131.18 -12.26,117.56 -8.93,97.78 -5.61,78.00 -3.26,62.28 -0.91,46.57 0.68,33.73 2.27,20.90 2.88,12.01 3.50,3.12 3.83,-2.26 4.17,-7.64 7.76,-5.04 11.36,-2.43 9.03,0.32 6.71,3.08 2.91,8.54 -0.89,13.99 -6.33,22.40 -11.76,30.81 -15.94,37.76 -20.11,44.70 -23.18,50.46 -26.24,56.22 -28.10,60.80 -29.96,65.39 -30.56,65.96 -31.15,66.52 -31.86,66.93 -32.57,67.34 -33.36,67.57 -34.15,67.80 -34.97,67.83 -35.79,67.86 -36.59,67.70 -37.39,67.53 -38.14,67.18 -38.88,66.83 -39.51,66.31 -40.15,65.79 -40.64,65.13 -41.13,64.48 -41.45,63.72 -41.77,62.97 -41.91,62.16 -42.04,61.35 -41.97,60.53 -41.90,59.71 -41.64,58.93 -41.38,58.16 -40.94,57.46 -40.50,56.77 -37.42,56.22 -34.34,55.66 -34.35,53.45 -34.36,51.24 -30.10,45.81 -25.85,40.38 -20.53,32.97 -15.21,25.57 -10.37,17.86 -5.53,10.16 -2.24,3.80 1.04,-2.56 3.63,-8.53 6.23,-14.50 6.83,-14.95 7.43,-15.40 8.12,-15.69 8.81,-15.99 9.55,-16.10 10.29,-16.22 11.04,-16.16 11.78,-16.10 12.49,-15.86 13.20,-15.62 13.84,-15.22 14.47,-14.82 14.99,-14.28 15.51,-13.73 15.88,-13.08 16.25,-12.43 16.46,-11.71 16.67,-10.99 16.70,-10.24 16.73,-9.49 16.57,-8.76 16.42,-8.03 16.10,-7.35 15.78,-6.67 15.30,-6.09 14.83,-5.51 12.24,-4.17 9.65,-2.83 5.96,-0.36 2.28,2.11 2.00,2.35 1.71,2.59 1.37,2.76 1.04,2.93 0.67,3.01 0.31,3.09 -0.06,3.08 -0.43,3.08 -0.80,2.98 -1.16,2.88 -1.49,2.70 -1.82,2.52 -2.09,2.27 -2.37,2.01 -2.57,1.70 -2.78,1.38 -2.91,1.03 -3.03,0.68 -3.07,0.30 -3.11,-0.06 -3.05,-0.43 -3.00,-0.80 -2.86,-1.15 -2.72,-1.50 -2.50,-1.80 -2.28,-2.11 -2.28,-2.11 L -2.28,-2.11 Z"></path></g><g transform="translate(345.2478472865746 249.1410811150065) rotate(0 -2.587818209705347 35.405088104121546)" stroke="none"><path fill="#1e1e1e" d="M 4.40,-0.10 Q 4.40,-0.10 5.93,6.38 7.47,12.87 7.48,18.29 7.49,23.71 6.56,33.59 5.63,43.47 4.71,50.66 3.80,57.84 3.15,61.95 2.50,66.05 2.16,67.15 1.81,68.26 1.57,69.09 1.33,69.93 0.90,70.68 0.47,71.43 -0.12,72.06 -0.72,72.69 -1.45,73.16 -2.18,73.62 -3.00,73.90 -3.82,74.18 -4.69,74.26 -5.55,74.33 -6.41,74.19 -7.26,74.06 -8.06,73.72 -8.86,73.38 -9.56,72.87 -10.25,72.35 -10.81,71.68 -11.36,71.01 -11.73,70.23 -12.11,69.44 -12.29,68.60 -12.46,67.75 -12.43,66.88 -12.40,66.01 -11.55,60.38 -10.70,54.75 -9.51,52.16 -8.31,49.57 -8.25,49.15 -8.19,48.73 -7.99,48.35 -7.80,47.97 -7.50,47.67 -7.19,47.38 -6.81,47.19 -6.43,47.01 -6.00,46.96 -5.58,46.91 -5.17,46.99 -4.75,47.08 -4.38,47.29 -4.02,47.51 -3.74,47.83 -3.46,48.15 -3.29,48.54 -3.13,48.93 -3.10,49.36 -3.07,49.78 -3.18,50.19 -3.29,50.60 -3.52,50.96 -3.76,51.31 -4.09,51.57 -4.43,51.84 -4.83,51.98 -5.23,52.12 -5.65,52.12 -6.08,52.13 -6.48,52.00 -6.89,51.87 -7.23,51.62 -7.57,51.36 -7.81,51.02 -8.06,50.67 -8.18,50.26 -8.30,49.85 -8.28,49.43 -8.26,49.00 -8.11,48.61 -7.96,48.21 -7.69,47.88 -7.42,47.55 -7.05,47.33 -6.69,47.11 -6.28,47.01 -5.87,46.91 -5.44,46.95 -5.02,46.99 -4.63,47.16 -4.24,47.34 -3.93,47.63 -3.62,47.91 -3.41,48.29 -3.21,48.66 -3.14,49.08 -3.06,49.50 -3.06,49.50 -3.06,49.50 -1.80,52.05 -0.53,54.61 0.07,58.01 0.69,61.40 1.25,64.83 1.81,68.26 1.57,69.09 1.33,69.93 0.90,70.68 0.47,71.43 -0.12,72.06 -0.71,72.69 -1.45,73.16 -2.18,73.62 -3.00,73.90 -3.82,74.18 -4.69,74.25 -5.55,74.33 -6.41,74.19 -7.26,74.06 -8.06,73.72 -8.86,73.38 -9.56,72.87 -10.25,72.35 -10.81,71.68 -11.36,71.01 -11.73,70.23 -12.11,69.45 -12.29,68.60 -12.46,67.75 -12.43,66.88 -12.40,66.01 -12.21,64.88 -12.02,63.75 -11.41,59.87 -10.79,55.98 -9.90,48.99 -9.01,42.00 -8.02,32.80 -7.04,23.61 -6.96,18.40 -6.87,13.19 -5.64,6.65 -4.40,0.10 -4.35,-0.42 -4.30,-0.95 -4.12,-1.45 -3.94,-1.95 -3.65,-2.40 -3.36,-2.84 -2.97,-3.20 -2.58,-3.56 -2.11,-3.82 -1.65,-4.08 -1.14,-4.22 -0.63,-4.35 -0.09,-4.37 0.43,-4.38 0.94,-4.26 1.46,-4.15 1.94,-3.91 2.41,-3.68 2.82,-3.33 3.23,-2.99 3.54,-2.56 3.85,-2.13 4.05,-1.64 4.25,-1.15 4.32,-0.62 4.40,-0.10 4.40,-0.10 L 4.40,-0.10 Z"></path></g><g transform="translate(349.21761377733856 218.551469163996) rotate(0 1.8088048929694196 1.7821263547249373)" stroke="none"><path fill="#1e1e1e" d="M 5.59,-1.74 Q 5.59,-1.74 5.67,-0.34 5.76,1.05 5.18,2.33 4.61,3.61 3.50,4.47 2.40,5.34 1.02,5.59 -0.35,5.84 -1.69,5.42 -3.03,5.01 -4.02,4.02 -5.01,3.02 -5.43,1.69 -5.84,0.35 -5.59,-1.02 -5.34,-2.40 -4.47,-3.50 -3.61,-4.61 -2.33,-5.18 -1.05,-5.76 0.34,-5.67 1.74,-5.59 2.94,-4.86 4.14,-4.14 4.86,-2.94 L 5.59,-1.74 Z"></path></g><g transform="translate(389.93439884591726 236.56481818660404) rotate(0 -13.371283368085187 32.377074013384004)" stroke="none"><path fill="#1e1e1e" d="M 2.00,4.39 Q 2.00,4.39 -1.66,7.10 -5.33,9.81 -7.20,11.88 -9.07,13.95 -10.18,16.05 -11.30,18.14 -11.21,20.31 -11.11,22.48 -7.99,26.32 -4.87,30.16 -3.33,34.23 -1.80,38.31 -1.69,43.04 -1.59,47.76 -3.58,52.67 -5.58,57.58 -9.41,61.52 -13.24,65.47 -20.26,65.92 -27.28,66.38 -29.01,63.94 -30.74,61.50 -30.81,55.43 -30.87,49.35 -28.94,44.91 -27.02,40.47 -26.19,37.48 -25.36,34.49 -25.22,34.09 -25.08,33.69 -24.82,33.35 -24.56,33.02 -24.21,32.78 -23.86,32.54 -23.45,32.43 -23.04,32.32 -22.61,32.35 -22.19,32.37 -21.80,32.53 -21.40,32.69 -21.08,32.97 -20.76,33.24 -20.54,33.61 -20.32,33.97 -20.23,34.39 -20.14,34.81 -20.19,35.23 -20.24,35.65 -20.42,36.03 -20.60,36.42 -20.90,36.73 -21.19,37.03 -21.57,37.23 -21.94,37.43 -22.36,37.49 -22.78,37.56 -23.20,37.49 -23.62,37.42 -23.99,37.22 -24.37,37.02 -24.66,36.71 -24.95,36.40 -25.13,36.01 -25.30,35.62 -25.35,35.20 -25.39,34.78 -25.30,34.36 -25.20,33.95 -24.98,33.58 -24.76,33.22 -24.43,32.95 -24.11,32.68 -23.71,32.52 -23.32,32.36 -22.89,32.34 -22.47,32.32 -22.06,32.44 -21.65,32.56 -21.30,32.80 -20.95,33.04 -20.70,33.38 -20.44,33.72 -20.31,34.12 -20.17,34.52 -20.18,34.95 -20.18,35.37 -20.18,35.37 -20.18,35.37 -20.38,38.47 -20.57,41.56 -20.04,45.34 -19.51,49.12 -18.69,53.83 -17.86,58.53 -20.17,56.94 -22.49,55.35 -20.15,53.41 -17.82,51.48 -16.50,49.29 -15.18,47.10 -15.00,44.78 -14.81,42.47 -15.41,40.26 -16.02,38.06 -18.18,35.11 -20.34,32.16 -22.34,28.89 -24.34,25.62 -24.77,21.85 -25.20,18.08 -24.13,14.63 -23.06,11.18 -20.81,7.70 -18.56,4.22 -14.84,0.95 -11.13,-2.31 -6.56,-3.35 -2.00,-4.39 -1.44,-4.57 -0.89,-4.74 -0.31,-4.78 0.27,-4.82 0.84,-4.72 1.41,-4.61 1.94,-4.38 2.48,-4.14 2.94,-3.78 3.40,-3.43 3.76,-2.97 4.12,-2.51 4.36,-1.98 4.60,-1.45 4.71,-0.88 4.82,-0.31 4.78,0.26 4.75,0.85 4.58,1.40 4.41,1.96 4.11,2.46 3.81,2.96 3.40,3.37 2.99,3.79 2.49,4.09 2.00,4.39 2.00,4.39 L 2.00,4.39 Z"></path></g><g transform="translate(412.1896354493815 180.97208019295726) rotate(0 8.627839268233856 51.47623954253834)" stroke="none"><path fill="#1e1e1e" d="M 5.81,-0.18 Q 5.81,-0.18 6.65,4.57 7.50,9.32 7.63,19.03 7.76,28.74 7.79,35.92 7.83,43.10 7.40,54.73 6.96,66.37 6.12,75.22 5.28,84.06 4.35,89.68 3.41,95.30 2.52,98.46 1.64,101.62 1.51,101.56 1.38,101.50 1.07,102.33 0.75,103.15 0.25,103.88 -0.24,104.61 -0.90,105.20 -1.57,105.78 -2.35,106.19 -3.13,106.60 -3.99,106.82 -4.85,107.03 -5.74,107.03 -6.62,107.03 -7.48,106.81 -8.34,106.60 -9.12,106.19 -9.91,105.78 -10.57,105.19 -11.23,104.61 -11.74,103.88 -12.24,103.15 -12.55,102.32 -12.86,101.49 -12.97,100.61 -13.08,99.74 -12.97,98.86 -12.86,97.98 -12.33,93.44 -11.80,88.90 -10.04,81.70 -8.28,74.50 -5.85,67.18 -3.43,59.86 -0.63,54.02 2.16,48.17 8.40,44.15 14.64,40.13 18.58,41.56 22.53,42.99 25.17,48.50 27.82,54.01 28.67,60.36 29.52,66.72 29.84,72.72 30.15,78.72 27.68,84.41 25.22,90.10 25.12,90.52 25.02,90.93 24.79,91.29 24.56,91.65 24.23,91.92 23.90,92.18 23.51,92.33 23.11,92.48 22.68,92.49 22.26,92.51 21.85,92.38 21.45,92.26 21.10,92.01 20.75,91.77 20.50,91.42 20.25,91.08 20.13,90.67 20.00,90.27 20.01,89.84 20.02,89.42 20.17,89.02 20.31,88.62 20.58,88.29 20.84,87.95 21.20,87.72 21.55,87.49 21.97,87.39 22.38,87.28 22.80,87.32 23.23,87.35 23.62,87.52 24.01,87.68 24.33,87.97 24.64,88.25 24.85,88.62 25.06,88.99 25.15,89.40 25.23,89.82 25.17,90.24 25.12,90.66 24.93,91.04 24.74,91.43 24.44,91.73 24.14,92.03 23.76,92.22 23.38,92.41 22.96,92.47 22.54,92.53 22.12,92.45 21.71,92.37 21.34,92.16 20.96,91.96 20.68,91.64 20.39,91.33 20.23,90.94 20.06,90.55 20.02,90.12 19.98,89.70 19.98,89.70 19.98,89.70 17.95,84.56 15.92,79.43 15.65,73.93 15.38,68.42 15.05,61.51 14.71,54.61 12.36,59.47 10.01,64.33 7.77,71.08 5.54,77.82 4.05,84.17 2.56,90.52 1.97,96.01 1.38,101.50 1.07,102.32 0.75,103.15 0.25,103.88 -0.24,104.61 -0.90,105.20 -1.57,105.78 -2.35,106.19 -3.13,106.60 -3.99,106.82 -4.85,107.03 -5.74,107.03 -6.62,107.03 -7.48,106.81 -8.34,106.60 -9.12,106.19 -9.91,105.78 -10.57,105.19 -11.23,104.61 -11.73,103.88 -12.24,103.15 -12.55,102.32 -12.86,101.49 -12.97,100.62 -13.08,99.74 -12.97,98.86 -12.86,97.98 -11.99,95.42 -11.11,92.87 -10.24,87.76 -9.38,82.65 -8.56,74.23 -7.75,65.81 -7.31,54.48 -6.87,43.15 -6.89,35.99 -6.92,28.84 -6.91,19.30 -6.90,9.77 -6.36,4.97 -5.81,0.18 -5.75,-0.51 -5.68,-1.21 -5.46,-1.87 -5.23,-2.54 -4.85,-3.13 -4.47,-3.72 -3.96,-4.20 -3.45,-4.68 -2.84,-5.02 -2.23,-5.37 -1.55,-5.56 -0.88,-5.75 -0.17,-5.77 0.52,-5.79 1.20,-5.64 1.89,-5.50 2.52,-5.19 3.15,-4.88 3.69,-4.43 4.23,-3.99 4.64,-3.42 5.06,-2.86 5.33,-2.21 5.60,-1.56 5.70,-0.87 5.81,-0.18 5.81,-0.18 L 5.81,-0.18 Z"></path></g><g transform="translate(460.15764721278356 201.3117977504753) rotate(0 17.68787085602662 25.003126042636495)" stroke="none"><path fill="#1e1e1e" d="M 4.43,-0.44 Q 4.43,-0.44 6.34,5.80 8.24,12.06 9.07,18.81 9.90,25.57 10.52,31.61 11.14,37.66 11.41,42.09 11.67,46.51 11.79,49.01 11.91,51.51 11.96,52.50 12.02,53.50 11.95,54.35 11.89,55.20 11.62,56.01 11.35,56.82 10.90,57.55 10.44,58.27 9.83,58.87 9.21,59.46 8.47,59.89 7.74,60.32 6.92,60.56 6.10,60.80 5.24,60.84 4.39,60.88 3.55,60.71 2.71,60.54 1.94,60.18 1.16,59.82 0.50,59.28 -0.15,58.74 -0.67,58.06 -1.19,57.38 -1.52,56.59 -1.86,55.81 -2.00,54.96 -2.14,54.12 -2.13,51.40 -2.12,48.69 -1.27,43.63 -0.41,38.57 1.17,32.54 2.76,26.52 4.96,20.58 7.16,14.64 10.00,9.66 12.84,4.68 15.93,1.04 19.03,-2.59 23.01,-5.01 27.00,-7.42 31.16,-7.58 35.32,-7.73 35.72,-7.87 36.12,-8.01 36.54,-8.02 36.97,-8.02 37.37,-7.89 37.78,-7.76 38.12,-7.51 38.46,-7.26 38.70,-6.91 38.95,-6.56 39.06,-6.15 39.18,-5.75 39.17,-5.32 39.15,-4.90 39.00,-4.50 38.84,-4.10 38.57,-3.77 38.30,-3.45 37.94,-3.22 37.58,-3.00 37.17,-2.90 36.75,-2.81 36.33,-2.85 35.91,-2.89 35.52,-3.06 35.13,-3.23 34.82,-3.52 34.51,-3.81 34.30,-4.18 34.10,-4.56 34.02,-4.97 33.95,-5.39 34.01,-5.81 34.08,-6.23 34.27,-6.61 34.46,-6.99 34.77,-7.29 35.07,-7.58 35.46,-7.76 35.84,-7.95 36.26,-8.00 36.68,-8.05 37.10,-7.97 37.52,-7.88 37.88,-7.67 38.25,-7.45 38.53,-7.13 38.81,-6.81 38.97,-6.42 39.13,-6.02 39.16,-5.60 39.19,-5.18 39.08,-4.77 38.97,-4.36 38.74,-4.00 38.51,-3.65 38.17,-3.38 37.84,-3.12 37.84,-3.12 37.84,-3.12 35.99,0.00 34.15,3.13 31.89,4.95 29.63,6.76 27.36,9.30 25.09,11.85 22.78,15.74 20.47,19.63 18.49,24.91 16.51,30.19 15.04,35.64 13.57,41.08 12.82,44.96 12.08,48.83 12.05,51.16 12.02,53.50 11.95,54.35 11.89,55.20 11.62,56.01 11.35,56.82 10.90,57.55 10.44,58.27 9.83,58.87 9.21,59.46 8.48,59.89 7.74,60.32 6.92,60.56 6.10,60.80 5.24,60.84 4.39,60.88 3.55,60.71 2.71,60.54 1.94,60.18 1.17,59.82 0.50,59.28 -0.15,58.74 -0.67,58.06 -1.19,57.38 -1.52,56.59 -1.86,55.81 -2.00,54.96 -2.14,54.12 -2.18,53.13 -2.22,52.13 -2.32,49.74 -2.41,47.35 -2.65,43.21 -2.90,39.07 -3.47,33.15 -4.05,27.24 -4.86,20.35 -5.67,13.47 -5.05,6.95 -4.43,0.44 -4.42,-0.08 -4.41,-0.62 -4.27,-1.14 -4.13,-1.66 -3.87,-2.13 -3.61,-2.60 -3.25,-2.99 -2.88,-3.39 -2.43,-3.69 -1.98,-3.98 -1.48,-4.16 -0.97,-4.34 -0.44,-4.40 0.09,-4.45 0.62,-4.37 1.15,-4.30 1.65,-4.10 2.15,-3.90 2.58,-3.58 3.02,-3.27 3.36,-2.86 3.71,-2.45 3.95,-1.97 4.19,-1.49 4.31,-0.97 4.43,-0.44 4.43,-0.44 L 4.43,-0.44 Z"></path></g><g transform="translate(533.3155347865327 190.13349022607872) rotate(0 -4.143176989352696 23.60250278480612)" stroke="none"><path fill="#1e1e1e" d="M -0.76,3.75 Q -0.76,3.75 -4.15,4.37 -7.55,5.00 -9.70,8.39 -11.86,11.79 -13.41,17.68 -14.96,23.58 -15.77,29.17 -16.58,34.77 -16.87,38.68 -17.16,42.59 -19.71,41.69 -22.26,40.78 -18.86,37.74 -15.45,34.69 -12.75,30.53 -10.04,26.37 -7.73,21.69 -5.42,17.00 -3.97,12.78 -2.52,8.57 -1.93,5.25 -1.34,1.94 -1.05,0.15 -0.76,-1.64 -0.50,-2.44 -0.24,-3.24 0.19,-3.96 0.63,-4.67 1.24,-5.26 1.84,-5.85 2.57,-6.28 3.29,-6.71 4.10,-6.95 4.91,-7.19 5.75,-7.23 6.59,-7.27 7.42,-7.11 8.24,-6.95 9.01,-6.60 9.77,-6.24 10.43,-5.72 11.09,-5.19 11.60,-4.52 12.11,-3.85 12.45,-3.08 12.79,-2.31 12.93,-1.48 13.07,-0.64 13.01,0.19 12.95,1.03 14.14,5.80 15.33,10.57 16.36,15.45 17.40,20.33 18.48,25.23 19.56,30.13 20.40,33.63 21.23,37.14 19.88,39.59 18.52,42.04 18.75,42.40 18.98,42.76 19.08,43.18 19.18,43.59 19.14,44.01 19.10,44.44 18.93,44.83 18.76,45.22 18.47,45.53 18.19,45.84 17.82,46.05 17.45,46.26 17.03,46.33 16.61,46.41 16.19,46.35 15.77,46.29 15.39,46.10 15.01,45.91 14.71,45.60 14.41,45.30 14.23,44.92 14.04,44.54 13.99,44.12 13.93,43.70 14.02,43.28 14.10,42.86 14.31,42.49 14.52,42.12 14.84,41.84 15.16,41.56 15.55,41.40 15.94,41.23 16.37,41.20 16.79,41.17 17.20,41.27 17.61,41.38 17.97,41.61 18.33,41.84 18.59,42.18 18.85,42.51 19.00,42.91 19.14,43.31 19.15,43.73 19.16,44.16 19.03,44.56 18.90,44.97 18.65,45.31 18.40,45.66 18.05,45.90 17.71,46.15 17.30,46.27 16.89,46.39 16.47,46.38 16.04,46.36 15.65,46.21 15.25,46.06 14.92,45.79 14.59,45.52 14.59,45.53 14.59,45.53 10.93,43.01 7.27,40.50 6.39,36.86 5.51,33.23 4.41,28.26 3.31,23.28 2.25,18.18 1.20,13.09 0.51,9.12 -0.16,5.15 -0.46,1.75 -0.76,-1.64 -0.50,-2.44 -0.24,-3.24 0.19,-3.96 0.63,-4.67 1.24,-5.26 1.84,-5.85 2.56,-6.28 3.29,-6.71 4.10,-6.95 4.91,-7.19 5.75,-7.23 6.59,-7.27 7.42,-7.11 8.24,-6.95 9.01,-6.60 9.77,-6.24 10.43,-5.72 11.09,-5.19 11.60,-4.52 12.11,-3.85 12.45,-3.08 12.79,-2.31 12.93,-1.48 13.07,-0.65 13.01,0.18 12.95,1.03 12.61,2.81 12.27,4.59 11.39,8.86 10.50,13.12 8.71,18.13 6.93,23.14 4.18,28.60 1.44,34.06 -2.13,39.27 -5.71,44.49 -10.42,48.42 -15.13,52.36 -18.86,52.63 -22.59,52.90 -26.77,47.52 -30.96,42.13 -30.66,37.40 -30.35,32.67 -29.30,26.12 -28.25,19.57 -25.66,11.79 -23.06,4.02 -19.44,-0.33 -15.82,-4.68 -11.17,-6.27 -6.53,-7.86 -2.88,-5.80 0.76,-3.75 1.20,-3.61 1.63,-3.46 2.03,-3.21 2.42,-2.97 2.74,-2.63 3.06,-2.30 3.29,-1.90 3.52,-1.50 3.65,-1.06 3.78,-0.61 3.80,-0.15 3.82,0.30 3.72,0.75 3.63,1.21 3.44,1.62 3.24,2.04 2.95,2.40 2.65,2.76 2.28,3.04 1.92,3.31 1.49,3.49 1.07,3.68 0.61,3.75 0.15,3.83 -0.30,3.79 -0.76,3.75 -0.76,3.75 L -0.76,3.75 Z"></path></g><g transform="translate(363.1918321097469 339.981503837133) rotate(0 207.82314506992452 -75.07874232734457)" stroke="none"><path fill="#1e1e1e" d="M -1.73,-4.43 Q -1.73,-4.43 4.13,-7.27 9.99,-10.12 29.68,-16.95 49.36,-23.79 70.83,-31.18 92.30,-38.57 116.92,-46.93 141.53,-55.30 175.93,-67.15 210.34,-78.99 239.76,-89.55 269.18,-100.11 294.02,-109.38 318.85,-118.65 338.08,-125.98 357.31,-133.31 370.54,-138.44 383.76,-143.57 392.32,-146.85 400.89,-150.14 404.53,-151.38 408.18,-152.62 411.39,-152.59 414.60,-152.56 415.01,-152.67 415.42,-152.77 415.84,-152.74 416.27,-152.70 416.66,-152.54 417.05,-152.37 417.37,-152.09 417.68,-151.80 417.89,-151.44 418.10,-151.07 418.19,-150.65 418.27,-150.23 418.21,-149.81 418.15,-149.39 417.97,-149.01 417.78,-148.63 417.48,-148.33 417.18,-148.02 416.80,-147.83 416.42,-147.64 416.00,-147.59 415.58,-147.53 415.16,-147.61 414.74,-147.68 414.37,-147.89 414.00,-148.10 413.72,-148.42 413.43,-148.73 413.26,-149.12 413.09,-149.51 413.06,-149.93 413.02,-150.36 413.12,-150.77 413.23,-151.18 413.45,-151.54 413.68,-151.90 414.01,-152.17 414.34,-152.43 414.74,-152.58 415.14,-152.73 415.56,-152.74 415.99,-152.76 416.39,-152.63 416.80,-152.51 417.15,-152.26 417.49,-152.02 417.74,-151.67 417.99,-151.33 418.12,-150.92 418.24,-150.52 418.23,-150.09 418.22,-149.67 418.08,-149.27 417.93,-148.87 417.67,-148.53 417.40,-148.20 417.04,-147.97 416.69,-147.74 416.69,-147.74 416.69,-147.74 414.52,-145.38 412.35,-143.02 408.73,-141.10 405.11,-139.19 396.56,-135.88 388.01,-132.58 374.75,-127.46 361.50,-122.34 342.22,-115.00 322.95,-107.66 298.04,-98.39 273.13,-89.11 243.64,-78.53 214.15,-67.94 179.72,-56.06 145.30,-44.19 120.71,-35.84 96.12,-27.48 74.65,-20.10 53.18,-12.72 33.69,-6.03 14.20,0.65 7.97,2.54 1.73,4.43 1.17,4.57 0.62,4.72 0.04,4.72 -0.52,4.73 -1.08,4.60 -1.64,4.46 -2.15,4.20 -2.66,3.94 -3.09,3.56 -3.53,3.19 -3.86,2.72 -4.19,2.25 -4.40,1.72 -4.61,1.18 -4.68,0.61 -4.76,0.04 -4.69,-0.52 -4.63,-1.09 -4.43,-1.63 -4.23,-2.17 -3.91,-2.64 -3.59,-3.12 -3.16,-3.50 -2.74,-3.89 -2.23,-4.16 -1.73,-4.43 -1.73,-4.43 L -1.73,-4.43 Z"></path></g><g transform="translate(427.72188041526215 358.61913065465933) rotate(0 1.293909104852446 0.1547355218174289)" stroke="none"><path fill="#1e1e1e" d="M 5.24,-1.63 Q 5.24,-1.63 5.32,-0.32 5.40,0.99 4.86,2.18 4.32,3.38 3.28,4.19 2.25,5.00 0.96,5.24 -0.33,5.48 -1.58,5.09 -2.84,4.70 -3.77,3.77 -4.70,2.84 -5.09,1.58 -5.48,0.33 -5.24,-0.96 -5.00,-2.25 -4.19,-3.29 -3.38,-4.32 -2.18,-4.86 -0.98,-5.40 0.32,-5.32 1.63,-5.24 2.76,-4.56 3.88,-3.88 4.56,-2.75 L 5.24,-1.63 Z"></path></g><g transform="translate(451.0122443026089 348.9881783484368) rotate(0 0.17341049858850965 -0.23210328272614333)" stroke="none"><path fill="#1e1e1e" d="M 4.39,-1.37 Q 4.39,-1.37 4.46,-0.27 4.53,0.83 4.07,1.83 3.62,2.84 2.75,3.52 1.89,4.20 0.80,4.40 -0.27,4.59 -1.33,4.27 -2.38,3.94 -3.16,3.16 -3.94,2.38 -4.27,1.33 -4.59,0.27 -4.40,-0.80 -4.20,-1.89 -3.52,-2.75 -2.84,-3.62 -1.83,-4.07 -0.82,-4.53 0.27,-4.46 1.37,-4.39 2.31,-3.82 3.25,-3.25 3.82,-2.31 L 4.39,-1.37 Z"></path></g></svg>